<?xml version="1.0" standalone="no"?><!DOCTYPE svg PUBLIC "-//W3C//DTD SVG 1.1//EN" "http://www.w3.org/Graphics/SVG/1.1/DTD/svg11.dtd"><svg t="1608207101759" class="icon" viewBox="0 0 1024 1024" version="1.1" xmlns="http://www.w3.org/2000/svg" p-id="3175" xmlns:xlink="http://www.w3.org/1999/xlink" width="200" height="200"><defs><style type="text/css"></style></defs><path d="M768 496.768a21.333333 21.333333 0 0 1 3.84 42.325333l-3.84 0.341334H256a21.333333 21.333333 0 0 1-3.84-42.325334L256 496.768h512zM768 699.306667a21.333333 21.333333 0 0 1 3.84 42.325333l-3.84 0.341333H256a21.333333 21.333333 0 0 1-3.84-42.325333L256 699.306667h512zM768 294.229333a21.333333 21.333333 0 0 1 3.84 42.325334l-3.84 0.341333H256a21.333333 21.333333 0 0 1-3.84-42.325333L256 294.229333h512z" fill="#ffffff" p-id="3176"></path></svg>